#tb 0: 1/25
0,          0,          0,        1,   152064, 0xb4e6c735
0,          1,          1,        1,   152064, 0xb4e6c735
0,          2,          2,        1,   152064, 0xb4e6c735
0,          3,          3,        1,   152064, 0xb4e6c735
0,          4,          4,        1,   152064, 0xb4e6c735
0,          5,          5,        1,   152064, 0xb4e6c735
0,          6,          6,        1,   152064, 0x1f3b0657
0,          7,          7,        1,   152064, 0x6e7547e6
0,          8,          8,        1,   152064, 0x1197524c
0,          9,          9,        1,   152064, 0xb4cdb293
0,         10,         10,        1,   152064, 0xdd7cf1b8
0,         11,         11,        1,   152064, 0x360b1005
0,         12,         12,        1,   152064, 0x11a49918
0,         13,         13,        1,   152064, 0xa10dd4f9
0,         14,         14,        1,   152064, 0x78da71d7
0,         15,         15,        1,   152064, 0x105e4cc0
0,         16,         16,        1,   152064, 0x54bfa1c5
0,         17,         17,        1,   152064, 0xd666559e
0,         18,         18,        1,   152064, 0xd93faa1c
0,         19,         19,        1,   152064, 0xb1af85ed
0,         20,         20,        1,   152064, 0xfc7bf570
0,         21,         21,        1,   152064, 0x9dc72412
0,         22,         22,        1,   152064, 0x445d1d59
0,         23,         23,        1,   152064, 0x2f2768ef
0,         24,         24,        1,   152064, 0xce09f9d6
0,         25,         25,        1,   152064, 0x95579936
0,         26,         26,        1,   152064, 0x43d796b5
0,         27,         27,        1,   152064, 0xd780d887
0,         28,         28,        1,   152064, 0x76d2a455
0,         29,         29,        1,   152064, 0x6dc3650e
0,         30,         30,        1,   152064, 0x0f9d6aca
0,         31,         31,        1,   152064, 0xddae8141
0,         32,         32,        1,   152064, 0x67cb8f24
0,         33,         33,        1,   152064, 0xc7a72348
0,         34,         34,        1,   152064, 0x0d7a1144
0,         35,         35,        1,   152064, 0x39adfb3d
0,         36,         36,        1,   152064, 0x0ecc70d5
0,         37,         37,        1,   152064, 0xf3a6805e
0,         38,         38,        1,   152064, 0xc3bd71ad
0,         39,         39,        1,   152064, 0xa9be9730
0,         40,         40,        1,   152064, 0xab9af790
0,         41,         41,        1,   152064, 0x4c3ccd25
0,         42,         42,        1,   152064, 0xbc83c58a
0,         43,         43,        1,   152064, 0x94877df4
0,         44,         44,        1,   152064, 0xa2360ea6
0,         45,         45,        1,   152064, 0xb4e6c735
0,         46,         46,        1,   152064, 0xb4e6c735
0,         47,         47,        1,   152064, 0xb4e6c735
0,         48,         48,        1,   152064, 0xb4e6c735
0,         49,         49,        1,   152064, 0xb4e6c735
